<svg height="100" viewBox="0 0 225 100" width="225" xmlns="http://www.w3.org/2000/svg" xmlns:xlink="http://www.w3.org/1999/xlink"><linearGradient id="a" x1="21.716104%" x2="73.783469%" y1="41.445832%" y2="58.554168%"><stop offset="0" stop-color="#d0d4db"/><stop offset=".0315824452" stop-color="#d0d4db"/><stop offset="1" stop-color="#f5f6fa"/></linearGradient><g fill="none"><g opacity=".207613"><path d="m224.75738 25.4591579c0 2.8762017-2.527049 5.2523246-5.634488 5.2523246h-57.369579c-2.809518 0-5.068735 2.0693859-5.068735 4.6701228v-.0054386c0 2.6007368 2.259217 4.6967719 5.068735 4.6967719h.914368c3.107711 0 5.608735 2.3494737 5.608735 5.2259474 0 2.8710351-2.501024 5.215614-5.608735 5.215614h-14.910723c-3.029639 0-5.46506 2.2659912-5.46506 5.0701316v-.0051667c0 2.8044123 2.435421 5.0883509 5.46506 5.0883509h34.041958c3.107439 0 5.615512 2.3266316 5.615512 5.2028333v-.0051666c0 2.8762017-2.508073 5.2436228-5.615512 5.2436228h-85.6439461c-3.4311145 0-6.2208434 2.5444473-6.2208434 5.7205877 0 3.1704298 2.7897289 5.7290175 6.2208434 5.7290175h46.3971691c3.10771 0 5.652379 2.3532807 5.652379 5.2297544 0 2.8710351-2.544669 5.2115351-5.652379 5.2115351h-136.91737996c-3.10743976 0-5.63475904-2.3353333-5.63475904-5.2115351 0-2.8819123 2.52731928-5.2297544 5.63475904-5.2297544h55.44704816c3.4311145 0 6.212982-2.5531491 6.212982-5.7290175 0-3.181579-2.7818675-5.7205877-6.212982-5.7205877h-16.2005421c-3.1077109 0-5.6713555-2.3619825-5.6713555-5.2384562v-.0051666c0-2.8762018 2.5636446-5.1976667 5.6713555-5.1976667h57.0177109c3.02991 0 5.461807-2.2785 5.461807-5.0831842v-.0051667c0-2.8046842-2.431897-5.0649649-5.461807-5.0649649h-76.1486748c-3.1074398 0-5.6008735-2.3394123-5.6008735-5.215614 0-2.8819123 2.4934337-5.2259474 5.6008735-5.2259474h90.9422888c2.80979 0 5.060874-2.0905965 5.060874-4.6913333v-.0054386c0-2.6007369-2.251084-4.6646842-5.060874-4.6646842h-39.6449996c-3.1077109 0-5.6293374-2.3706843-5.6293374-5.246886v-.0054386c0-2.8764737 2.5216265-5.1889649 5.6293374-5.1889649h6.2362951c2.9260844 0 5.3276205-2.2094298 5.3276205-4.9181228v-.0054386c0-2.708693-2.4015361-4.8697193-5.3276205-4.8697193h-51.1096988c-3.1077108 0-5.6450602-2.36089476-5.6450602-5.23736844 0-2.88191228 2.5373494-5.20419298 5.6450602-5.20419298h137.8553313c3.10744 0 5.63747 2.3277193 5.63747 5.20419298 0 2.87103509-2.53003 5.23736844-5.63747 5.23736844h-41.262831c-2.926085 0-5.301868 2.1664649-5.301868 4.8751579v-.0054386c0 2.708421 2.375783 4.9235614 5.301868 4.9235614h90.356205c3.107439 0 5.634488 2.3179298 5.634488 5.1944035z" fill="url(#a)"/><path d="m9.15981818 25.0916667c0 2.7013889 2.33045452 4.8913889 5.20500002 4.8913889h19.4108182c2.8745454 0 5.2047272-2.19 5.2047272-4.8913889 0-2.7016667-2.3301818-4.8916667-5.2047272-4.8916667h-19.4108182c-2.8745455 0-5.20500002 2.19-5.20500002 4.8916667" fill="#d0d4db"/><g fill="#ebecf1"><path d="m186.171818 47.0180556c0 2.7016666 2.330182 4.8916666 5.204727 4.8916666h19.410819c2.874545 0 5.204727-2.19 5.204727-4.8916666 0-2.7013889-2.330182-4.8913889-5.204727-4.8913889h-19.410819c-2.874545 0-5.204727 2.19-5.204727 4.8913889"/><path d="m187.169254 4.92777778c0 2.70166666 2.295403 4.89166666 5.127045 4.89166666h7.478865c2.831642 0 5.127314-2.19 5.127314-4.89166666 0-2.70138889-2.295672-4.89166667-5.127314-4.89166667h-7.478865c-2.831642 0-5.127045 2.19027778-5.127045 4.89166667"/></g></g><g transform="translate(45 -10)"><ellipse cx="63" cy="108" fill="#c7cbd2" opacity=".223549" rx="39" ry="2"/><g transform="matrix(.69465837 -.7193398 .7193398 .69465837 .390565 81.073294)"><path d="m7.3550181 28.0780058h38v14h-38c-3.86599325 0-7-3.1340068-7-7s3.13400675-7 7-7z" fill="#d0d4db"/><path d="m1.60574379.7127905 5.96260763-.0478146.12916461 14.124444-6.26932387-.090371c-.55217675-.0080846-.99337332-.4621299-.98560786-1.0143112l.17128039-11.9862676c.007767-.5435376.44830352-.9813206.9918791-.9856796z" fill="#6f798a" transform="translate(34.681969 27.325824)"/><circle cx="78.385298" cy="34.279254" fill="#ebecf1" r="33.5" stroke="#d0d4db" stroke-width="7"/><g fill="#d0d4db" transform="matrix(-.99999999664 0 0 -.99999999664 69.91947847446 27.59236460364)"><path d="m3.76893398 0c1.81448611 0 3.28541773 1.47498123 3.28541773 3.29446279 0 1.48962603-.9859427 2.74833882-2.33915959 3.15576662l-.00006728.7824443c0 .52611584-.43662756.95261699-.96129893.95261699-.52467138 0-.94742706-.42650115-.94742706-.95261699l.00082164-.02367371.00951838-.62007443-.00151838-.04392557.00511617-.13975615c.02791275-.47582311.16747649-.83968784.41869123-1.0915942.25035205-.25104129.61158957-.50415078 1.08371258-.75932847.06074473-.02514503.11801799-.05598796.17269579-.09058069l.01536624-.00818169c.37773266-.24730185.6282285-.67486517.6282285-1.16109601 0-.7630084-.61684229-1.38154891-1.37775582-1.38154891-.4871411 0-.91523271.25351699-1.16022123.63615589-.33028924.40777328-.93328534.48121058-1.34463712.16177936-.37707458-.29282322-.46930546-.81462446-.23542449-1.21869615l-.00179674-.00135511c.58687051-.89780712 1.59924437-1.49079787 2.74973838-1.49079787z"/><ellipse cx="3.970175" cy="10.436246" rx="1.028059" ry="1.023161"/></g><g fill="#d4d7de" transform="matrix(-.96592582199 -.25881904199 -.25881904199 .96592582199 90.4271434573 47.92673185684)"><path d="m2.71085458.34300189c1.14997344 0 2.0822111.8809729 2.0822111 1.96770806 0 .88955082-.62462699 1.64123481-1.48200869 1.88472918l-.0005316.46747507c0 .31423709-.27672303.56897658-.6092459.56897658-.33252288 0-.60045428-.25473949-.60045428-.56897658l.00047856-.01991231.00607467-.36458388-.00007467-.01741612.00452103-.12248676c.02193244-.26944257.1096622-.4767061.26318929-.62179056.1611336-.1522727.39474593-.3058194.70083696-.4606401.02856568-.01040399.05399725-.02325513.07863943-.03722238l.0265408-.01465577c.23940554-.14772153.39815466-.40308951.39815466-.69349637 0-.45572765-.39093838-.8251679-.8731853-.8251679-.29676734 0-.55895629.13990637-.7167396.35373173l-.01725555.02711499c-.21126385.24273874-.59302312.28637799-.85351637.09573999-.26204611-.19177445-.3070365-.54798693-.10048883-.79562285l-.04869652.06749598-.00096652-.00086026.02896652-.03813974.02069652-.02849598c.00183598-.00220121.00368565-.00438643.00554882-.00655564l-.05521186.07319136c.37197217-.53608311 1.01349154-.89013974 1.74251733-.89013974z"/><circle cx="2.548706" cy="6.71813" r="1"/></g><g fill="#4cb4f5" transform="matrix(.70710678 .70710678 -.70710678 .70710678 85.50419110162 9.28614647269)"><path d="m12.3110137.62750546c7.7657614 0 14.0611548 5.99061577 14.0611548 13.38041484 0 6.0500347-4.21962 11.1622373-10.0111203 12.8170525l-.0005424 3.15312.00008.0248164c0 2.1368122-1.8687084 3.8690407-4.1142327 3.8690407s-4.05486295-1.7322285-4.05486295-3.8690407c0-.0869205.00236124-.1725243.00704277-.2567746l.03721118-2.3577995-.00371841-.2608296.00125304-.0801552c.05745418-2.1322338.66072309-3.7450774 1.80980667-4.8385306 1.0571006-1.0059233 2.5761293-2.0200227 4.5570864-3.0422982.2866083-.1162232.5609592-.253873.8215288-.4104086l.0644125-.0324173c1.6164478-1.0040919 2.6887352-2.7407729 2.6887352-4.7157753 0-3.098948-2.6400037-5.61114172-5.8966133-5.61114172-1.9372118 0-3.65623579.88894713-4.73116427 2.26155312-.06792414.1059871-.14423315.2089173-.22667634.3092006l.01312704-.0177431c-.00713668.0104278-.01423791.0208795-.02130355.031355-1.38888742 1.6717749-3.97025013 1.9670587-5.7355029.6563671-1.60884233-1.1945577-2.01312649-3.31182543-1.03298121-4.95207868l-.00269324-.00095916.03372221-.05005879c.09032085-.14593172.19175096-.28792418.30441937-.42497326.01302259-.01584059.02614894-.03155872.0393774-.04715419 2.55570345-3.35345027 6.70638011-5.53478176 11.39245419-5.53478176z"/><ellipse cx="12.262618" cy="42.659546" rx="3.904762" ry="3.911111"/></g></g><path d="m79.3202157 22c14.0832613 0 25.5000003 11.4167389 25.5000003 25.5 0 9.6148784-5.321367 17.9868851-13.179644 22.3315629 1.401134-3.1581966 2.179644-6.6539644 2.179644-10.3315629 0-14.0832611-11.4167392-25.5-25.5000003-25.5-4.46868 0-8.668889 1.1494607-12.3210853 3.1688401 3.9648122-8.9356904 12.9150337-15.1688401 23.3210853-15.1688401z" fill="#fff" opacity=".5"/></g></g></svg>